<svg xmlns="http://www.w3.org/2000/svg" version="1.1" xmlns:xlink="http://www.w3.org/1999/xlink" xmlns:svgjs="http://svgjs.dev/svgjs" width="1000" height="623" viewBox="0 0 1000 623"><g transform="matrix(1,0,0,1,-0.6060606060606233,0.2522267206477409)"><svg viewBox="0 0 396 247" data-background-color="#ffffff" preserveAspectRatio="xMidYMid meet" height="623" width="1000" xmlns="http://www.w3.org/2000/svg" xmlns:xlink="http://www.w3.org/1999/xlink"><g id="tight-bounds" transform="matrix(1,0,0,1,0.2400000000000091,-0.09999999999999432)"><svg viewBox="0 0 395.52 247.2" height="247.2" width="395.52"><g><svg></svg></g><g><svg viewBox="0 0 395.52 247.2" height="247.2" width="395.52"><g transform="matrix(1,0,0,1,75.54432,90.87473543147209)"><svg viewBox="0 0 244.43135999999998 65.45052913705582" height="65.45052913705582" width="244.43135999999998"><g><svg viewBox="0 0 244.43135999999998 65.45052913705582" height="65.45052913705582" width="244.43135999999998"><g><svg viewBox="0 0 244.43135999999998 65.45052913705582" height="65.45052913705582" width="244.43135999999998"><g><svg viewBox="0 0 244.43135999999998 65.45052913705582" height="65.45052913705582" width="244.43135999999998"><g><svg viewBox="0 0 244.43135999999998 65.45052913705582" height="65.45052913705582" width="244.43135999999998"><g><svg viewBox="0 0 244.43135999999998 65.45052913705582" height="65.45052913705582" width="244.43135999999998"><g transform="matrix(1,0,0,1,0,0)"><svg width="244.43135999999998" viewBox="1.75 -35 157.58999633789062 42.20000076293945" height="65.45052913705582" data-palette-color="#ee3e38"><path d="M10.35 4.1L10.35 4.1Q11.95 2.6 12.88 0.45 13.8-1.7 13.8-4.5L13.8-4.5 13.8-35 1.75-35 1.75-31.05 9.65-31.05 9.65-4.65Q9.65-2.8 9.05-1.35 8.45 0.1 7.45 1.05L7.45 1.05Q6.4 2.05 4.93 2.6 3.45 3.15 1.75 3.25L1.75 3.25 1.75 7.2Q4.3 7.15 6.53 6.35 8.75 5.55 10.35 4.1ZM40.35-9.6L40.35-9.6Q41.65-12.45 42.87-15.58 44.1-18.7 44.8-21L44.8-21 45.3-19.25 54.15 1.6Q57.6-6.65 61.07-14.73 64.55-22.8 68-31.05L68-31.05 72.7-31.05 72.7-35 60.6-35 60.6-31.05 63.8-31.05Q61.5-25.55 59.22-20.13 56.95-14.7 54.6-9.25L54.6-9.25 54.15-7.6 53.7-9.25Q51.35-14.7 49.07-20.15 46.8-25.6 44.45-31.05L44.45-31.05 47.8-31.05 47.8-35 35.7-35 35.7-31.05 40.3-31.05Q40.9-29.6 41.52-28.18 42.15-26.75 42.75-25.3L42.75-25.3Q41.85-23.15 40.95-20.95 40.05-18.75 39.1-16.55L39.1-16.55Q38.1-14.3 37.1-11.83 36.1-9.35 35.5-7.6L35.5-7.6 35.05-9.25Q32.7-14.7 30.42-20.15 28.15-25.6 25.8-31.05L25.8-31.05 29.4-31.05 29.4-35 17.3-35 17.3-31.05 21.65-31.05Q25.1-22.8 28.57-14.73 32.05-6.65 35.5 1.6L35.5 1.6Q36.65-1.1 37.85-3.93 39.05-6.75 40.35-9.6ZM98.69 0L110.79 0 110.79-3.95 107.14-3.95 107.14-31.05 114.89-31.05 114.89-27.3 118.84-27.3 118.84-35 91.19-35 91.19-27.3 95.14-27.3 95.14-31.05 102.99-31.05 102.99-3.95 98.69-3.95 98.69 0ZM154.39-31.05L154.39-31.05 159.34-31.05 159.34-35 147.24-35 147.24-31.05 150.19-31.05Q147.89-25.55 145.62-20.13 143.34-14.7 140.99-9.25L140.99-9.25 140.54-7.6 140.09-9.25Q137.74-14.7 135.47-20.15 133.19-25.6 130.84-31.05L130.84-31.05 134.44-31.05 134.44-35 122.34-35 122.34-31.05 126.69-31.05Q130.14-22.8 133.62-14.73 137.09-6.65 140.54 1.6L140.54 1.6Q143.99-6.65 147.47-14.73 150.94-22.8 154.39-31.05Z" opacity="1" transform="matrix(1,0,0,1,0,0)" fill="#fff" class="undefined-text-0" data-fill-palette-color="primary" id="text-0"></path></svg></g></svg></g></svg></g></svg></g></svg></g></svg></g></svg></g><path d="M192.998 84.875L192.998 27.135 385.927 27.135 385.927 220.065 192.998 220.065 192.998 162.325 198.9 162.325 198.9 214.162 380.025 214.162 380.025 33.038 198.9 33.038 198.9 84.875Z" fill="#fff" stroke="transparent" data-fill-palette-color="primary"></path></svg></g><defs></defs></svg><rect width="395.52" height="247.2" fill="none" stroke="none" visibility="hidden"></rect></g></svg></g></svg>