<svg xmlns="http://www.w3.org/2000/svg" version="1.1" xmlns:xlink="http://www.w3.org/1999/xlink" xmlns:svgjs="http://svgjs.dev/svgjs" width="1000" height="623" viewBox="0 0 1000 623"><g transform="matrix(1,0,0,1,-0.6060606060606233,0.2522267206477409)"><svg viewBox="0 0 396 247" data-background-color="#ffffff" preserveAspectRatio="xMidYMid meet" height="623" width="1000" xmlns="http://www.w3.org/2000/svg" xmlns:xlink="http://www.w3.org/1999/xlink"><g id="tight-bounds" transform="matrix(1,0,0,1,0.2400000000000091,-0.09999999999999432)"><svg viewBox="0 0 395.52 247.2" height="247.2" width="395.52"><g><svg></svg></g><g><svg viewBox="0 0 395.52 247.2" height="247.2" width="395.52"><g transform="matrix(1,0,0,1,39.55199999999999,98.55587053941909)"><svg viewBox="0 0 316.416 50.08825892116182" height="50.08825892116182" width="316.416"><g><svg viewBox="0 0 316.416 50.08825892116182" height="50.08825892116182" width="316.416"><g><svg viewBox="0 0 316.416 50.08825892116182" height="50.08825892116182" width="316.416"><g><svg viewBox="0 0 316.416 50.08825892116182" height="50.08825892116182" width="316.416"><g><svg viewBox="0 0 316.416 50.08825892116182" height="50.08825892116182" width="316.416"><g><svg viewBox="0 0 316.416 50.08825892116182" height="50.08825892116182" width="316.416"><g transform="matrix(1,0,0,1,0,0)"><svg width="316.416" viewBox="-0.9000000357627869 -37.599998474121094 240.989990234375 38.14999771118164" height="50.08825892116182" data-palette-color="#ffffff"><path d="M-0.9-34.05L-0.9-37.15 14.3-37.15 14.3-34.05 10.05-33.4 17.5-11 18.95-5.95 20.2-11.05 27.2-33.4 23.25-34.05 23.25-37.15 35.35-37.15 35.35-34.05 32.15-33.4 20.65 0.35 14.7 0.35 2.1-33.4-0.9-34.05ZM40.9-3.5L40.9-33.4 36.65-34.05 36.65-37.15 52.65-37.15 52.65-34.05 48.25-33.4 48.25-3.5 52.65-2.95 52.65 0 36.65 0 36.65-3 40.9-3.5ZM60.8-3.5L60.8-33.4 57.05-34.05 57.05-37.15 64.35-37.15Q66-37.15 68.8-37.35L68.8-37.35Q69.45-37.4 70.77-37.45 72.1-37.5 73.15-37.5L73.15-37.5Q82.35-37.5 86.92-32.9 91.5-28.3 91.5-19.85L91.5-19.85Q91.5-13.95 89.22-9.35 86.95-4.75 82.75-2.18 78.55 0.4 72.95 0.4L72.95 0.4Q71.5 0.4 68.4 0.2L68.4 0.2Q65.5 0 64.45 0L64.45 0 56.85 0 56.85-3 60.8-3.5ZM68.05-3.35Q69.75-2.9 72.8-2.9L72.8-2.9Q77.8-3 80.65-6.93 83.5-10.85 83.5-18.7L83.5-18.7Q83.5-26.15 80.7-30.23 77.9-34.3 72-34.3L72-34.3Q70.75-34.3 69.62-34.15 68.5-34 68.05-33.95L68.05-33.95 68.05-3.35ZM110.69 0.55Q102.54 0.55 98.49-4.55 94.44-9.65 94.44-18.45L94.44-18.45Q94.44-24.2 96.57-28.55 98.69-32.9 102.54-35.25 106.39-37.6 111.39-37.6L111.39-37.6Q119.64-37.6 123.77-32.73 127.89-27.85 127.89-19.1L127.89-19.1Q127.89-13.3 125.72-8.83 123.54-4.35 119.64-1.9 115.74 0.55 110.69 0.55L110.69 0.55ZM111.19-34.55Q107.09-34.55 104.79-30.5 102.49-26.45 102.49-18.5L102.49-18.5Q102.49-10.65 104.72-6.58 106.94-2.5 111.09-2.5L111.09-2.5Q115.14-2.5 117.44-6.78 119.74-11.05 119.74-19.1L119.74-19.1Q119.74-26.9 117.54-30.73 115.34-34.55 111.19-34.55L111.19-34.55ZM131.29 0L131.29-3 135.24-3.5 135.24-33.4 131.49-34.1 131.49-37.15 138.74-37.15Q139.69-37.15 140.84-37.2 141.99-37.25 142.59-37.3L142.59-37.3Q145.19-37.5 146.89-37.5L146.89-37.5Q152.04-37.5 155.14-36.45 158.24-35.4 159.64-33.25 161.04-31.1 161.04-27.6L161.04-27.6Q161.04-24.15 159.19-21.2 157.34-18.25 153.84-17.15L153.84-17.15Q155.84-16.3 157.39-14.05 158.94-11.8 160.69-8.2L160.69-8.2Q161.94-5.75 162.62-4.67 163.29-3.6 163.94-3.45L163.94-3.45 165.59-2.95 165.59 0 157.09 0Q156.29 0 155.42-1.63 154.54-3.25 153.14-6.75L153.14-6.75Q151.49-10.85 150.29-13.15 149.09-15.45 147.74-16L147.74-16 142.59-16 142.59-3.5 147.19-3 147.19 0 131.29 0ZM147.19-19.05Q150.04-19.05 151.64-21.1 153.24-23.15 153.24-27.25L153.24-27.25Q153.24-30.9 151.67-32.65 150.09-34.4 146.24-34.4L146.24-34.4Q144.84-34.4 143.87-34.27 142.89-34.15 142.59-34.15L142.59-34.15 142.59-19.15Q143.19-19.05 145.49-19.05L145.49-19.05 147.19-19.05ZM167.54-3.5L179.04-37.35 186.69-37.35 198.24-3.5 201.14-3 201.14 0 186.39 0 186.39-3 190.14-3.5 188.19-10 175.24-10 173.29-3.45 177.34-3 177.34 0 164.59 0 164.54-3 167.54-3.5ZM187.19-13.5L182.49-28.9 181.59-32.8 180.64-28.85 176.19-13.5 187.19-13.5ZM206.44-3.5L206.44-33.4 202.74-34.05 202.74-37.15 217.94-37.15 217.94-34.05 213.74-33.4 213.74-20.85 228.94-20.85 228.94-33.4 225.09-34.05 225.09-37.15 240.09-37.15 240.09-34.05 236.29-33.4 236.29-3.5 240.09-3 240.09 0 225.04 0 225.04-3 228.94-3.5 228.94-17.05 213.74-17.05 213.74-3.5 217.94-3 217.94 0 202.64 0 202.64-3 206.44-3.5Z" opacity="1" transform="matrix(1,0,0,1,0,0)" fill="#ffffff" class="undefined-text-0" data-fill-palette-color="primary" id="text-0"></path></svg></g></svg></g></svg></g></svg></g><g></g></svg></g></svg></g></svg></g><g mask="url(#00202252-6b42-44b0-b143-c82e7b807156)"><g transform="matrix(2.6467133056025194, 0, 0, 2.6467133056025194, 75.50294475880203, 0.9999999999999858)"><svg xmlns="http://www.w3.org/2000/svg" xmlns:xlink="http://www.w3.org/1999/xlink" version="1.1" x="0" y="0" viewBox="3.6159474849700928 3.625 92.3840560913086 92.64320373535156" enable-background="new 0 0 100 100" xml:space="preserve" height="92.64320373535156" width="92.3840560913086" class="icon-none" data-fill-palette-color="accent" id="none"><path d="M96 61c0-11-2-21-9-30C76.473 16.645 56.79 10.542 41.093 17.932 51.08 10.011 64.033 11.012 75 15 50.258 2.202 28.43 19.978 18.827 42.242c0.02-0.563 0.056-1.128 0.129-1.697 0 0 0.665-4.83 3.109-11.767C32 7 63 2 82.213 14.691c8.674 6.973 10.213 7.025 10.213 7.025L78.284 7.573c0 0-0.435 0.093-2.179-0.174C72 7 68 4 64 4c-8-1-16 0-23 3-17.502 6.667-29.432 26.53-25.4 44.541C15.383 52.36 15.182 53.18 15 54c-4-4-3-10-3.403-15.116 0.908-7.152 2.407-12.049 2.407-12.049C0.91 53.159 22.091 74.787 46.306 81.197 40.871 81.615 35.435 79.812 30 78 3 67 0 29 19.678 10.315c1.558-2.019 2.038-2.742 2.038-2.742s-3.688 3.658-7.343 7.373c-3.656 3.714-6.799 6.77-6.799 6.77s-0.201 0.926-1.123 3.905C4 34 3 42 4 51c3.517 22.859 28.675 39.523 50.414 31.753C55.277 82.855 56.14 82.938 57 83c-8 5-18 6-27 4 24.75 9.075 44.053-9.756 50.052-31.785C80.025 56.474 80 57.736 80 59c0 6-3 12-6 17-15 21-45 22-63.422 4.568-2.214-1.735-3.004-2.284-3.004-2.284s3.953 4.033 7.37 7.393c3.417 3.36 6.772 6.75 6.772 6.75s0.873 0.159 3.642 0.925C32 95 39 97 47 96c4-1 7-2 11-3 19.067-7.801 31.359-29.871 23.885-48.638C81.959 43.238 82 42.117 82 41c6 10 8 22 3 32 8-15 3-33-9-44-6.845-5.476-14.627-8.607-23.025-10.039C58.316 19.159 63.658 19.863 69 22c5 3 9 6 13 10 16 17 11 43-2.792 58.518-0.886 1.502-0.923 1.909-0.923 1.909l14.142-14.143c0 0-0.113-0.406 0.134-2.16C93 71 96 66 96 61zM69 49.999c0 10.493-8.507 19-19 19-10.494 0-19-8.507-19-19 0-10.494 8.506-19 19-19C60.493 30.999 69 39.505 69 49.999z" fill="#ffffff" data-fill-palette-color="accent"></path></svg></g></g></svg></g><defs><mask id="add72c6d-d079-405f-9c73-3e90b40bc4b8"><rect width="640" height="400" fill="white"></rect><rect width="348.05760000000004" height="73.7375305473062" fill="black" x="145.97119999999998" y="163.1312347263469" id="transform-me" transform="matrix(1,0,0,1,-122.24000000000001,-76.4)"></rect></mask><mask id="ac9a4314-0f71-405e-bd7c-8d823fec74a5"><rect width="640" height="400" fill="white"></rect><rect width="348.05760000000004" height="73.7375305473062" fill="black" x="145.97119999999998" y="163.1312347263469" id="transform-me" transform="matrix(1,0,0,1,-122.24000000000001,-76.4)"></rect></mask><mask id="8fdac0bb-a7e0-49f4-8d01-b8f4c504e147"><rect width="640" height="400" fill="white"></rect><rect width="348.05760000000004" height="73.7375305473062" fill="black" x="145.97119999999998" y="163.1312347263469" id="transform-me" transform="matrix(1,0,0,1,-122.24000000000001,-76.4)"></rect></mask><mask id="1dc5174c-fe51-4135-978a-4bbb689ec0a4"><rect width="640" height="400" fill="white"></rect><rect width="348.05760000000004" height="73.7375305473062" fill="black" x="145.97119999999998" y="163.1312347263469" id="transform-me" transform="matrix(1,0,0,1,-122.24000000000001,-76.4)"></rect></mask><mask id="0ed722e2-2a52-43fc-b486-004cc2e9a1b1"><rect width="640" height="400" fill="white"></rect><rect width="348.05760000000004" height="73.7375305473062" fill="black" x="145.97119999999998" y="163.1312347263469" id="transform-me" transform="matrix(1,0,0,1,-122.24000000000001,-76.4)"></rect></mask><mask id="1db9bb91-34bb-4368-aa3c-329a577ecdc0"><rect width="640" height="400" fill="white"></rect><rect width="348.05760000000004" height="73.7375305473062" fill="black" x="145.97119999999998" y="163.1312347263469" id="transform-me" transform="matrix(1,0,0,1,-122.24000000000001,-76.4)"></rect></mask><mask id="848448c7-3aec-4880-9562-939af2477c69"><rect width="640" height="400" fill="white"></rect><rect width="348.05760000000004" height="73.7375305473062" fill="black" x="145.97119999999998" y="163.1312347263469" id="transform-me" transform="matrix(1,0,0,1,-122.24000000000001,-76.4)"></rect></mask><mask id="00202252-6b42-44b0-b143-c82e7b807156"><rect width="640" height="400" fill="white"></rect><rect width="348.05760000000004" height="73.7375305473062" fill="black" x="145.97119999999998" y="163.1312347263469" id="transform-me" transform="matrix(1,0,0,1,-122.24000000000001,-76.4)"></rect></mask></defs></svg><rect width="395.52" height="247.2" fill="none" stroke="none" visibility="hidden"></rect></g></svg></g></svg>